<svg width="91" height="27" viewBox="0 0 91 27" fill="none" xmlns="http://www.w3.org/2000/svg">
<path d="M0.188 13.328C0.188 10.832 0.728 8.612 1.808 6.668C2.888 4.7 4.388 3.176 6.308 2.096C8.252 0.991999 10.448 0.439999 12.896 0.439999C15.896 0.439999 18.464 1.232 20.6 2.816C22.736 4.4 24.164 6.56 24.884 9.296H18.116C17.612 8.24 16.892 7.436 15.956 6.884C15.044 6.332 14 6.056 12.824 6.056C10.928 6.056 9.392 6.716 8.216 8.036C7.04 9.356 6.452 11.12 6.452 13.328C6.452 15.536 7.04 17.3 8.216 18.62C9.392 19.94 10.928 20.6 12.824 20.6C14 20.6 15.044 20.324 15.956 19.772C16.892 19.22 17.612 18.416 18.116 17.36H24.884C24.164 20.096 22.736 22.256 20.6 23.84C18.464 25.4 15.896 26.18 12.896 26.18C10.448 26.18 8.252 25.64 6.308 24.56C4.388 23.456 2.888 21.932 1.808 19.988C0.728 18.044 0.188 15.824 0.188 13.328ZM47.9139 8.864C47.9139 10.328 47.5779 11.672 46.9059 12.896C46.2339 14.096 45.2019 15.068 43.8099 15.812C42.4179 16.556 40.6899 16.928 38.6259 16.928H34.8099V26H28.6539V0.727999H38.6259C40.6419 0.727999 42.3459 1.076 43.7379 1.772C45.1299 2.468 46.1739 3.428 46.8699 4.652C47.5659 5.876 47.9139 7.28 47.9139 8.864ZM38.1579 12.032C39.3339 12.032 40.2099 11.756 40.7859 11.204C41.3619 10.652 41.6499 9.872 41.6499 8.864C41.6499 7.856 41.3619 7.076 40.7859 6.524C40.2099 5.972 39.3339 5.696 38.1579 5.696H34.8099V12.032H38.1579ZM79.7387 0.727999V26H73.5827V10.844L67.9307 26H62.9627L57.2747 10.808V26H51.1187V0.727999H58.3907L65.4827 18.224L72.5027 0.727999H79.7387Z" fill="white"/>
<path d="M87.0456 26.288C85.9656 26.288 85.0776 25.976 84.3816 25.352C83.7096 24.704 83.3736 23.912 83.3736 22.976C83.3736 22.016 83.7096 21.212 84.3816 20.564C85.0776 19.916 85.9656 19.592 87.0456 19.592C88.1016 19.592 88.9656 19.916 89.6376 20.564C90.3336 21.212 90.6816 22.016 90.6816 22.976C90.6816 23.912 90.3336 24.704 89.6376 25.352C88.9656 25.976 88.1016 26.288 87.0456 26.288Z" fill="#EA8EC1"/>
</svg>
