<svg width="20" height="16" viewBox="0 0 20 16" fill="none" xmlns="http://www.w3.org/2000/svg">
<path fill-rule="evenodd" clip-rule="evenodd" d="M10.9207 1.97424C10.5198 2.06799 10.1535 2.31404 9.8909 2.70635C9.26655 3.63911 9.46479 5.04547 10.3337 5.84754C12.6177 7.95593 14.0982 8.99034 16.848 10.3542C17.6412 10.7476 18.4909 10.5223 18.9892 9.86477C19.025 9.82051 19.0593 9.77398 19.092 9.72517C19.717 8.79296 19.5196 7.38653 18.6511 6.58382C16.3002 4.41082 14.8174 3.39579 12.1661 2.09918C11.7459 1.8937 11.3107 1.86137 10.9207 1.97424Z" fill="white"/>
<path fill-rule="evenodd" clip-rule="evenodd" d="M19.1367 7.56378C19.6549 8.20983 19.6572 9.0831 19.0666 9.74086C17.0237 12.0158 15.6309 13.1629 12.9819 14.8C11.9757 15.4218 10.554 15.2475 9.80627 14.4108C9.49443 14.0618 9.34909 13.6527 9.35861 13.2493C9.34657 12.8446 9.49032 12.4336 9.80186 12.0827C11.7536 9.88453 13.128 8.73034 15.8574 7.04599C16.8641 6.42478 18.2857 6.59983 19.0327 7.43698C19.0697 7.47843 19.1044 7.52074 19.1367 7.56378Z" fill="white"/>
<path fill-rule="evenodd" clip-rule="evenodd" d="M15.4206 10.4442C11.1214 9.83363 8.90111 9.84685 4.77046 10.4432C3.48084 10.6294 2.22978 10.0129 1.97614 9.06635C1.72249 8.11977 2.56231 7.20149 3.85193 7.01532C8.58586 6.3319 11.425 6.31843 16.3247 7.01429C17.6151 7.19755 18.4588 8.11393 18.2091 9.06107C17.9594 10.0082 16.711 10.6275 15.4206 10.4442Z" fill="white"/>
<path fill-rule="evenodd" clip-rule="evenodd" d="M4.76303 7.01478C9.06224 7.62536 11.2825 7.61213 15.4131 7.01581C16.7028 6.82963 17.9538 7.44606 18.2075 8.39264C18.4611 9.33921 17.6213 10.2575 16.3317 10.4437C11.5977 11.1271 8.75858 11.1406 3.85887 10.4447C2.56848 10.2614 1.72482 9.34506 1.97449 8.39791C2.22417 7.45077 3.47264 6.83152 4.76303 7.01478Z" fill="white"/>
</svg>
